<svg width="26" height="26" viewBox="0 0 26 26" fill="none" xmlns="http://www.w3.org/2000/svg">
<path d="M2.58325 21.3333H4.66659M4.66659 21.3333H15.0833M4.66659 21.3333V6.95854C4.66659 5.79176 4.66659 5.20794 4.89366 4.76229C5.09339 4.37028 5.41187 4.05181 5.80387 3.85207C6.24952 3.625 6.83335 3.625 8.00012 3.625H11.7501C12.9169 3.625 13.4995 3.625 13.9451 3.85207C14.3371 4.05181 14.6567 4.37028 14.8564 4.76229C15.0833 5.2075 15.0833 5.79062 15.0833 6.95511V13M15.0833 21.3333H21.3333M15.0833 21.3333V13M21.3333 21.3333H23.4166M21.3333 21.3333V13C21.3333 12.0293 21.3331 11.5442 21.1746 11.1613C20.9631 10.6508 20.5579 10.245 20.0474 10.0336C19.6646 9.875 19.1787 9.875 18.208 9.875C17.2373 9.875 16.7519 9.875 16.3691 10.0336C15.8586 10.245 15.4533 10.6508 15.2418 11.1613C15.0833 11.5442 15.0833 12.0293 15.0833 13M7.79159 10.9167H11.9583M7.79159 7.79167H11.9583" stroke="#EFAD43" stroke-width="2" stroke-linecap="round" stroke-linejoin="round"/>
</svg>
