<svg width="25" height="24" viewBox="0 0 25 24" fill="none" xmlns="http://www.w3.org/2000/svg">
<path d="M3.5 11V15.8002C3.5 16.9203 3.5 17.4801 3.71799 17.9079C3.90973 18.2842 4.21547 18.5905 4.5918 18.7822C5.0192 19 5.57899 19 6.69691 19H18.3031C19.421 19 19.98 19 20.4074 18.7822C20.7837 18.5905 21.0905 18.2842 21.2822 17.9079C21.5 17.4805 21.5 16.9215 21.5 15.8036V11M3.5 11V9M3.5 11H21.5M3.5 9V8.2002C3.5 7.08009 3.5 6.51962 3.71799 6.0918C3.90973 5.71547 4.21547 5.40973 4.5918 5.21799C5.01962 5 5.58009 5 6.7002 5H18.3002C19.4203 5 19.9796 5 20.4074 5.21799C20.7837 5.40973 21.0905 5.71547 21.2822 6.0918C21.5 6.5192 21.5 7.07899 21.5 8.19691V9M3.5 9H21.5M7.5 15H11.5M21.5 11V9" stroke="currentColor" stroke-width="2" stroke-linecap="round" stroke-linejoin="round"/>
</svg>
