<svg width="26" height="26" viewBox="0 0 26 26" fill="none" xmlns="http://www.w3.org/2000/svg">
<path d="M19.25 13.0003V18.2087C19.25 19.9346 16.4518 21.3337 13 21.3337C9.54822 21.3337 6.75 19.9346 6.75 18.2087V13.0003M19.25 13.0003V7.79199M19.25 13.0003C19.25 14.7262 16.4518 16.1253 13 16.1253C9.54822 16.1253 6.75 14.7262 6.75 13.0003M19.25 7.79199C19.25 6.0661 16.4518 4.66699 13 4.66699C9.54822 4.66699 6.75 6.0661 6.75 7.79199M19.25 7.79199C19.25 9.51788 16.4518 10.917 13 10.917C9.54822 10.917 6.75 9.51788 6.75 7.79199M6.75 13.0003V7.79199" stroke="#FF8D8D" stroke-width="2" stroke-linecap="round" stroke-linejoin="round"/>
</svg>
