<svg width="50" height="50" viewBox="0 0 50 50" fill="none" xmlns="http://www.w3.org/2000/svg">
<g id="File / File_Edit">
<path id="Vector" d="M12.5 22.9171V12.9171C12.5 10.5835 12.5 9.41588 12.9541 8.52458C13.3536 7.74057 13.9906 7.10361 14.7746 6.70414C15.6659 6.25 16.8335 6.25 19.1671 6.25H28.489C28.7443 6.25 28.9677 6.25 29.1667 6.25181M41.6647 18.75C41.6666 18.9492 41.6667 19.1728 41.6667 19.4285V37.0908C41.6667 39.4197 41.6667 40.5843 41.213 41.4747C40.8135 42.2588 40.1748 42.8968 39.3908 43.2963C38.5004 43.75 37.3354 43.75 35.0064 43.75L27.0833 43.75M41.6647 18.75C41.659 18.1552 41.6369 17.7787 41.5507 17.4194C41.4486 16.9943 41.2796 16.5878 41.0512 16.215C40.7935 15.7945 40.4352 15.4352 39.7145 14.7145L33.2031 8.20312C32.4829 7.48295 32.122 7.12201 31.7017 6.86442C31.3289 6.63597 30.9227 6.46719 30.4976 6.36513C30.1382 6.27885 29.7617 6.25723 29.1667 6.25181M41.6647 18.75H41.6671M41.6647 18.75H35.8269C33.4979 18.75 32.3317 18.75 31.4412 18.2963C30.6572 17.8968 30.0203 17.2582 29.6208 16.4741C29.1667 15.5828 29.1667 14.4169 29.1667 12.0833V6.25181M18.75 29.1667L22.9167 33.3333M8.33333 43.75V38.5417L23.9583 22.9167L29.1667 28.125L13.5417 43.75H8.33333Z" stroke="#E7458F" stroke-width="2" stroke-linecap="round" stroke-linejoin="round"/>
</g>
</svg>
