<svg width="25" height="24" viewBox="0 0 25 24" fill="none" xmlns="http://www.w3.org/2000/svg">
<path d="M14.5 18H21.5M3.5 18H5.5M5.5 18C5.5 19.3807 6.61929 20.5 8 20.5C9.38071 20.5 10.5 19.3807 10.5 18C10.5 16.6193 9.38071 15.5 8 15.5C6.61929 15.5 5.5 16.6193 5.5 18ZM20.5 12H21.5M3.5 12H10.5M13.5 6H21.5M13.5 6C13.5 4.61929 12.3807 3.5 11 3.5C9.61929 3.5 8.5 4.61929 8.5 6C8.5 7.38071 9.61929 8.5 11 8.5C12.3807 8.5 13.5 7.38071 13.5 6ZM3.5 6H4.5M17 14.5C15.6193 14.5 14.5 13.3807 14.5 12C14.5 10.6193 15.6193 9.5 17 9.5C18.3807 9.5 19.5 10.6193 19.5 12C19.5 13.3807 18.3807 14.5 17 14.5Z" stroke="white" stroke-width="2" stroke-linecap="round" stroke-linejoin="round"/>
</svg>
