<svg width="25" height="24" viewBox="0 0 25 24" fill="none" xmlns="http://www.w3.org/2000/svg">
<path d="M2.375 20H4.375M4.375 20H14.375M4.375 20V6.2002C4.375 5.08009 4.375 4.51962 4.59299 4.0918C4.78473 3.71547 5.09047 3.40973 5.4668 3.21799C5.89462 3 6.45509 3 7.5752 3H11.1752C12.2953 3 12.8546 3 13.2824 3.21799C13.6587 3.40973 13.9655 3.71547 14.1572 4.0918C14.375 4.5192 14.375 5.07899 14.375 6.19691V12M14.375 20H20.375M14.375 20V12M20.375 20H22.375M20.375 20V12C20.375 11.0681 20.3749 10.6024 20.2227 10.2349C20.0197 9.74481 19.6307 9.35523 19.1406 9.15224C18.7731 9 18.3066 9 17.3747 9C16.4429 9 15.9769 9 15.6094 9.15224C15.1193 9.35523 14.7302 9.74481 14.5272 10.2349C14.375 10.6024 14.375 11.0681 14.375 12M7.375 10H11.375M7.375 7H11.375" stroke="currentColor" stroke-width="2" stroke-linecap="round" stroke-linejoin="round"/>
</svg>
