<svg width="25" height="19" viewBox="0 0 25 19" fill="none" xmlns="http://www.w3.org/2000/svg">
<path d="M1.50269 18H3.67948M3.67948 18H14.5635M3.67948 18V4.2002C3.67948 3.08009 3.67948 2.51962 3.91674 2.0918C4.12543 1.71547 4.4582 1.40973 4.86779 1.21799C5.33343 1 5.94345 1 7.16257 1H11.0808C12.2999 1 12.9086 1 13.3743 1.21799C13.7839 1.40973 14.1177 1.71547 14.3264 2.0918C14.5635 2.5192 14.5635 3.07899 14.5635 4.19691V10M14.5635 18H21.0938M14.5635 18V10M21.0938 18H23.2706M21.0938 18V10C21.0938 9.06812 21.0937 8.60241 20.928 8.23486C20.7071 7.74481 20.2837 7.35523 19.7504 7.15224C19.3503 7 18.8426 7 17.8284 7C16.8141 7 16.307 7 15.9069 7.15224C15.3736 7.35523 14.9501 7.74481 14.7292 8.23486C14.5635 8.60241 14.5635 9.06812 14.5635 10M6.94467 8H11.2983M6.94467 5H11.2983" stroke="#EFAD43" stroke-width="2" stroke-linecap="round" stroke-linejoin="round"/>
</svg>
