<svg width="28" height="26" viewBox="0 0 28 26" fill="none" xmlns="http://www.w3.org/2000/svg">
<path d="M18.6929 12.2071L11.3255 16.9353C11.1855 17.0252 11.007 17.029 10.8632 16.9453L1.62608 11.5652C1.33988 11.3985 1.33107 10.9882 1.60986 10.8094L16.6746 1.14625C16.8145 1.05647 16.993 1.05261 17.1367 1.13625L26.3737 6.51209C26.66 6.67871 26.6689 7.08908 26.3901 7.26797L22.0408 10.0586M18.6974 15.9623L11.3254 20.6907C11.1855 20.7805 11.007 20.7843 10.8633 20.7007L1.62597 15.3246C1.33976 15.1581 1.33075 14.7479 1.60936 14.5689L4.07041 12.9879M23.9296 8.84902L26.3734 10.2716C26.6598 10.4383 26.6686 10.8488 26.3896 11.0276L22.0005 13.841M24.1086 12.4869L26.4028 13.9087C26.6798 14.0804 26.683 14.4822 26.4087 14.6582L11.3255 24.3375C11.1855 24.4273 11.007 24.4312 10.8632 24.3475L1.62608 18.9674C1.33988 18.8007 1.33107 18.3904 1.60985 18.2116L3.97642 16.6935M12.1418 4.34101L21.7804 9.95304C21.9167 10.0324 22.0005 10.1782 22.0005 10.336V17.2414C22.0005 17.3922 21.9238 17.5327 21.7969 17.6142L19.3799 19.1664C19.085 19.3558 18.6974 19.1441 18.6974 18.7936V12.4617C18.6974 12.3041 18.6136 12.1583 18.4774 12.0789L9.2299 6.69043C8.94385 6.52375 8.93497 6.11366 9.21354 5.93476L11.6794 4.3511C11.8195 4.26118 11.998 4.25729 12.1418 4.34101Z" stroke="currentColor" stroke-width="1.77237" stroke-linecap="round" stroke-linejoin="round"/>
</svg>
