<svg width="20" height="21" viewBox="0 0 20 21" fill="none" xmlns="http://www.w3.org/2000/svg">
<path fill-rule="evenodd" clip-rule="evenodd" d="M19.9358 14.4801C20.0691 14.1539 19.9906 13.7772 19.7389 13.535C19.4872 13.2928 19.115 13.2358 18.8051 13.392C17.7584 13.9195 16.5801 14.2162 15.3317 14.2162C10.9835 14.2162 7.45846 10.6087 7.45846 6.15868C7.45846 4.35712 8.0352 2.69589 9.01033 1.35447C9.21644 1.07094 9.22917 0.686339 9.04229 0.38918C8.85541 0.092021 8.50809 -0.0554168 8.17055 0.0191347C3.50017 1.05069 2.17361e-07 5.30112 0 10.3902C-2.50276e-07 16.2498 4.64155 21 10.3672 21C14.6778 21 18.372 18.3078 19.9358 14.4801ZM15.3317 15.9126C16.0317 15.9126 16.7144 15.8352 17.3721 15.6884C15.785 17.8824 13.2377 19.3037 10.3672 19.3037C5.55698 19.3037 1.65753 15.313 1.65753 10.3902C1.65753 6.87196 3.64977 3.82863 6.54305 2.37927C6.06513 3.54194 5.80093 4.8192 5.80093 6.15868C5.80093 11.5456 10.068 15.9126 15.3317 15.9126Z" fill="#F0813A"/>
</svg>
