<svg width="51" height="50" viewBox="0 0 51 50" fill="none" xmlns="http://www.w3.org/2000/svg">
<g id="Interface / Handbag">
<path id="Vector" d="M17.0667 16.6666H16.4645C14.4581 16.6666 13.4553 16.6666 12.6416 17.0317C11.9244 17.3534 11.3134 17.8716 10.8781 18.5262C10.3843 19.2688 10.2182 20.258 9.88839 22.2371L7.94395 33.9038L7.94317 33.9081C7.49851 36.5761 7.27606 37.9108 7.6624 38.951C8.00161 39.8642 8.65121 40.6295 9.49628 41.1143C10.4593 41.6666 11.812 41.6666 14.5195 41.6666H36.28C38.9875 41.6666 40.3424 41.6666 41.3054 41.1143C42.1505 40.6295 42.7985 39.8642 43.1377 38.951C43.5239 37.9112 43.3016 36.5771 42.8573 33.9112L42.8555 33.9038L40.9111 22.2371C40.5812 20.258 40.4161 19.2688 39.9223 18.5262C39.487 17.8716 38.8755 17.3534 38.1583 17.0317C37.3446 16.6666 36.3425 16.6666 34.3361 16.6666H33.7333M17.0667 16.6666H33.7333M17.0667 16.6666C17.0667 12.0643 20.7976 8.33331 25.4 8.33331C30.0024 8.33331 33.7333 12.0643 33.7333 16.6666" stroke="#4B4A49" stroke-width="2" stroke-linecap="round" stroke-linejoin="round"/>
</g>
</svg>
