<svg width="25" height="24" viewBox="0 0 25 24" fill="none" xmlns="http://www.w3.org/2000/svg">
<path d="M12.375 12V18M12.375 18L15.375 16M12.375 18L9.375 16M13.375 3.00087C13.2795 3 13.1723 3 13.0497 3H8.5752C7.45509 3 6.89462 3 6.4668 3.21799C6.09047 3.40973 5.78473 3.71547 5.59299 4.0918C5.375 4.51962 5.375 5.08009 5.375 6.2002V17.8002C5.375 18.9203 5.375 19.4801 5.59299 19.9079C5.78473 20.2842 6.09047 20.5905 6.4668 20.7822C6.8942 21 7.45399 21 8.57191 21H16.1781C17.296 21 17.855 21 18.2824 20.7822C18.6587 20.5905 18.9655 20.2842 19.1572 19.9079C19.375 19.4805 19.375 18.9215 19.375 17.8036V9.32568C19.375 9.20296 19.375 9.09561 19.3741 9M13.375 3.00087C13.6606 3.00347 13.8413 3.01385 14.0138 3.05526C14.2179 3.10425 14.4129 3.18526 14.5918 3.29492C14.7936 3.41857 14.9668 3.59182 15.3125 3.9375L18.438 7.06298C18.7839 7.40889 18.9559 7.58136 19.0796 7.78319C19.1892 7.96214 19.2703 8.15726 19.3193 8.36133C19.3607 8.53376 19.3713 8.71451 19.3741 9M13.375 3.00087V5.8C13.375 6.9201 13.375 7.47977 13.593 7.90759C13.7847 8.28392 14.0905 8.59048 14.4668 8.78223C14.8942 9 15.454 9 16.5719 9H19.3741M19.3741 9H19.3752" stroke="white" stroke-width="2" stroke-linecap="round" stroke-linejoin="round"/>
</svg>
