<svg width="25" height="24" viewBox="0 0 25 24" fill="none" xmlns="http://www.w3.org/2000/svg">
<path d="M18.375 16.9999C19.3069 16.9999 19.7728 16.9999 20.1404 16.8477C20.6304 16.6447 21.0197 16.2552 21.2227 15.7652C21.3749 15.3976 21.375 14.9321 21.375 14.0002V10.1969C21.375 9.07899 21.375 8.5192 21.1572 8.0918C20.9655 7.71547 20.6587 7.40973 20.2824 7.21799C19.8808 7.01337 19.3634 7.00082 18.375 7.00005M18.375 7.00005C18.3104 7 18.2439 7 18.1752 7H6.5752C6.50638 7 6.43969 7 6.375 7.00005M18.375 7.00005L6.375 7.00005M18.375 7.00005V6.19691C18.375 5.07899 18.375 4.5192 18.1572 4.0918C17.9655 3.71547 17.6587 3.40973 17.2824 3.21799C16.8546 3 16.2953 3 15.1752 3H9.5752C8.45509 3 7.89462 3 7.4668 3.21799C7.09047 3.40973 6.78473 3.71547 6.59299 4.0918C6.375 4.51962 6.375 5.08009 6.375 6.2002V7.00005M6.375 7.00005C5.38673 7.00082 4.86834 7.01339 4.4668 7.21799C4.09047 7.40973 3.78473 7.71547 3.59299 8.0918C3.375 8.51962 3.375 9.08009 3.375 10.2002V14.0002C3.375 14.9321 3.375 15.3976 3.52724 15.7652C3.73023 16.2552 4.11932 16.6447 4.60938 16.8477C4.97692 16.9999 5.44286 16.9999 6.37474 16.9999M10.375 11H14.375M9.375 15H15.375C16.3069 15 16.7728 15 17.1404 15.1522C17.6304 15.3552 18.0197 15.7443 18.2227 16.2344C18.3749 16.6019 18.3749 17.0681 18.3749 18C18.3749 18.9319 18.3749 19.3978 18.2227 19.7654C18.0197 20.2554 17.6304 20.6447 17.1404 20.8477C16.7728 20.9999 16.3069 21 15.375 21H9.375C8.44312 21 7.97692 20.9999 7.60938 20.8477C7.11932 20.6447 6.73023 20.2557 6.52724 19.7656C6.375 19.3981 6.375 18.9316 6.375 17.9997C6.375 17.0679 6.375 16.6019 6.52724 16.2344C6.73023 15.7443 7.11932 15.3552 7.60938 15.1522C7.97692 15 8.44312 15 9.375 15Z" stroke="white" stroke-width="2" stroke-linecap="round" stroke-linejoin="round"/>
</svg>
