<svg width="25" height="24" viewBox="0 0 25 24" fill="none" xmlns="http://www.w3.org/2000/svg">
<path d="M6.875 21H20.8456C21.138 21 21.3752 20.7631 21.3752 20.4707L21.375 14.5293M8.35547 20.6713L21.0171 14.7671C21.2821 14.6435 21.3967 14.3285 21.2731 14.0635L18.7622 8.6792C18.6386 8.41421 18.3236 8.29914 18.0586 8.42271L12.4053 11.0591M10.2568 18.4048C9.75652 20.2719 7.83735 21.38 5.97021 20.8797C4.10308 20.3794 2.99482 18.4604 3.49511 16.5933L7.11096 3.09863C7.18663 2.81621 7.47668 2.64855 7.7591 2.72422L13.4981 4.26171C13.7805 4.33738 13.9481 4.6276 13.8724 4.91002L10.2568 18.4048ZM6.875 17.6001H6.877L6.87695 17.6021L6.875 17.6021V17.6001Z" stroke="currentColor" stroke-width="2" stroke-linecap="round" stroke-linejoin="round"/>
</svg>
