<svg width="15" height="15" viewBox="0 0 15 15" fill="none" xmlns="http://www.w3.org/2000/svg">
<path d="M5.375 9.625V11.75C5.375 12.9236 4.4236 13.875 3.25 13.875C2.07639 13.875 1.125 12.9236 1.125 11.75C1.125 10.5764 2.07639 9.625 3.25 9.625H5.375ZM5.375 9.625H9.625M5.375 9.625V5.375M9.625 9.625V11.75C9.625 12.9236 10.5764 13.875 11.75 13.875C12.9236 13.875 13.875 12.9236 13.875 11.75C13.875 10.5764 12.9236 9.625 11.75 9.625H9.625ZM9.625 9.625V5.375M9.625 5.375H5.375M9.625 5.375V3.25C9.625 2.07639 10.5764 1.125 11.75 1.125C12.9236 1.125 13.875 2.07639 13.875 3.25C13.875 4.4236 12.9236 5.375 11.75 5.375H9.625ZM5.375 5.375V3.25C5.375 2.07639 4.4236 1.125 3.25 1.125C2.07639 1.125 1.125 2.07639 1.125 3.25C1.125 4.4236 2.07639 5.375 3.25 5.375H5.375Z" stroke="currentColor" stroke-width="2" stroke-linecap="round" stroke-linejoin="round"/>
</svg>
