<svg width="25" height="24" viewBox="0 0 25 24" fill="none" xmlns="http://www.w3.org/2000/svg">
<path d="M17.25 21.0002L7.25 21M17.25 21.0002L18.0531 21C19.171 21 19.73 21 20.1574 20.7822C20.5337 20.5905 20.8405 20.2843 21.0322 19.908C21.25 19.4806 21.25 18.921 21.25 17.8031V9.21955C21.25 8.77072 21.25 8.54521 21.2021 8.33105C21.1595 8.14 21.0893 7.95652 20.9932 7.78595C20.8866 7.59674 20.737 7.43055 20.4429 7.10378L17.6877 4.04241C17.3469 3.66374 17.1742 3.47181 16.9668 3.33398C16.7803 3.21 16.5742 3.11858 16.3573 3.06287C16.1125 3 15.8498 3 15.325 3H6.4502C5.33009 3 4.76962 3 4.3418 3.21799C3.96547 3.40973 3.65973 3.71547 3.46799 4.0918C3.25 4.51962 3.25 5.08009 3.25 6.2002V17.8002C3.25 18.9203 3.25 19.4796 3.46799 19.9074C3.65973 20.2837 3.96547 20.5905 4.3418 20.7822C4.7692 21 5.32899 21 6.44691 21H7.25M17.25 21.0002V17.1969C17.25 16.079 17.25 15.5192 17.0322 15.0918C16.8405 14.7155 16.5337 14.4097 16.1574 14.218C15.7296 14 15.1703 14 14.0502 14H10.4502C9.33009 14 8.76962 14 8.3418 14.218C7.96547 14.4097 7.65973 14.7155 7.46799 15.0918C7.25 15.5196 7.25 16.0801 7.25 17.2002V21M15.25 7H9.25" stroke="#4B4A49" stroke-width="2" stroke-linecap="round" stroke-linejoin="round"/>
</svg>
