<svg width="37" height="39" viewBox="0 0 37 39" fill="none" xmlns="http://www.w3.org/2000/svg">
<path d="M18.5 38.9975C28.7173 38.9975 37 30.2676 37 19.4988C37 8.7299 28.7173 0 18.5 0C8.28273 0 0 8.7299 0 19.4988C0 30.2676 8.28273 38.9975 18.5 38.9975Z" fill="#E7458F"/>
<path d="M14.55 30.2757L6.3 21.5803C5.275 20.4999 5.275 18.7345 6.3 17.6542C7.325 16.5738 9 16.5738 10.025 17.6542L14.55 22.4234L26.875 9.5648C27.9 8.48446 29.575 8.48446 30.6 9.59115C31.625 10.6715 31.625 12.4369 30.575 13.5173L14.55 30.2757Z" fill="white"/>
</svg>
