<svg width="51" height="50" viewBox="0 0 51 50" fill="none" xmlns="http://www.w3.org/2000/svg">
<g id="Warning / Square_Help">
<path id="Vector" d="M19.6552 18.9034C20.011 17.8069 20.6628 16.8312 21.5391 16.0823C22.4154 15.3333 23.4829 14.8412 24.6214 14.6606C25.7599 14.4799 26.9254 14.6175 27.9905 15.0584C29.0556 15.4993 29.978 16.2266 30.6557 17.159C31.3334 18.0915 31.7393 19.1928 31.8299 20.342C31.9205 21.4912 31.6913 22.6433 31.1681 23.6705C30.6448 24.6976 29.8487 25.5594 28.8658 26.1617C27.883 26.764 26.7527 27.0828 25.6 27.0828V29.1672M25.7037 35.4167V35.625L25.4962 35.6254V35.4167H25.7037ZM6.84998 37.0837V12.9171C6.84998 10.5835 6.84998 9.41588 7.30412 8.52458C7.70359 7.74057 8.34054 7.10361 9.12455 6.70414C10.0159 6.25 11.1835 6.25 13.517 6.25H37.6837C40.0173 6.25 41.1824 6.25 42.0737 6.70414C42.8577 7.10361 43.4968 7.74057 43.8963 8.52458C44.35 9.415 44.35 10.5812 44.35 12.9102V37.0908C44.35 39.4198 44.35 40.5843 43.8963 41.4748C43.4968 42.2588 42.8577 42.8968 42.0737 43.2963C41.1833 43.75 40.0187 43.75 37.6897 43.75H13.5102C11.1812 43.75 10.015 43.75 9.12455 43.2963C8.34054 42.8968 7.70359 42.2588 7.30412 41.4748C6.84998 40.5835 6.84998 39.4173 6.84998 37.0837Z" stroke="currentColor" stroke-width="2" stroke-linecap="round" stroke-linejoin="round"/>
</g>
</svg>
