<svg width="23" height="23" viewBox="0 0 23 23" fill="none" xmlns="http://www.w3.org/2000/svg">
<path fill-rule="evenodd" clip-rule="evenodd" d="M5.30886 11.5C5.25859 16.1442 6.80652 17.6923 11.5006 17.6923C16.1946 17.6923 17.6923 16.1442 17.6923 11.5C17.6923 6.85577 16.1946 5.30769 11.5006 5.30769C6.80652 5.30769 5.35912 6.85577 5.30886 11.5ZM7.07799 11.5191C7.05392 13.7431 7.44194 14.652 7.87669 15.0868C8.31701 15.5271 9.24501 15.9231 11.5006 15.9231C13.7555 15.9231 14.668 15.5273 15.1015 15.0908C15.5379 14.6516 15.9231 13.7359 15.9231 11.5C15.9231 9.26408 15.5379 8.34837 15.1015 7.90915C14.668 7.47271 13.7555 7.07692 11.5006 7.07692C9.24637 7.07692 8.34938 7.47254 7.92254 7.90503C7.48463 8.34875 7.10231 9.27123 7.07799 11.5191Z" fill="#4D3B8F"/>
<path d="M12.3846 0.884615C12.3846 0.396056 11.9886 0 11.5 0C11.0114 0 10.6154 0.396056 10.6154 0.884615V2.65385C10.6154 3.14241 11.0114 3.53846 11.5 3.53846C11.9886 3.53846 12.3846 3.14241 12.3846 2.65385V0.884615Z" fill="#4D3B8F"/>
<path d="M12.3846 20.3462C12.3846 19.8576 11.9886 19.4615 11.5 19.4615C11.0114 19.4615 10.6154 19.8576 10.6154 20.3462V22.1154C10.6154 22.6039 11.0114 23 11.5 23C11.9886 23 12.3846 22.6039 12.3846 22.1154V20.3462Z" fill="#4D3B8F"/>
<path d="M23 11.5C23 11.9886 22.6039 12.3846 22.1154 12.3846H20.3462C19.8576 12.3846 19.4615 11.9886 19.4615 11.5C19.4615 11.0114 19.8576 10.6154 20.3462 10.6154H22.1154C22.6039 10.6154 23 11.0114 23 11.5Z" fill="#4D3B8F"/>
<path d="M2.65385 12.3846C3.14241 12.3846 3.53846 11.9886 3.53846 11.5C3.53846 11.0114 3.14241 10.6154 2.65385 10.6154H0.884615C0.396056 10.6154 0 11.0114 0 11.5C0 11.9886 0.396056 12.3846 0.884615 12.3846H2.65385Z" fill="#4D3B8F"/>
<path d="M2.70885 2.70885C3.05432 2.36339 3.61442 2.36339 3.95989 2.70885L5.11469 3.86365C5.46015 4.20912 5.46015 4.76922 5.11469 5.11469C4.76922 5.46015 4.20912 5.46015 3.86365 5.11469L2.70885 3.95989C2.36339 3.61442 2.36339 3.05432 2.70885 2.70885Z" fill="#4D3B8F"/>
<path d="M3.95989 20.6294C3.61442 20.9748 3.05432 20.9748 2.70885 20.6294C2.36339 20.2839 2.36339 19.7238 2.70885 19.3783L3.86365 18.2235C4.20912 17.8781 4.76922 17.8781 5.11469 18.2235C5.46015 18.569 5.46015 19.1291 5.11469 19.4746L3.95989 20.6294Z" fill="#4D3B8F"/>
<path d="M20.6294 2.70885C20.2839 2.36339 19.7238 2.36339 19.3783 2.70885L18.2235 3.86365C17.8781 4.20912 17.8781 4.76922 18.2235 5.11469C18.569 5.46015 19.1291 5.46015 19.4746 5.11469L20.6294 3.95989C20.9748 3.61442 20.9748 3.05432 20.6294 2.70885Z" fill="#4D3B8F"/>
<path d="M19.3783 20.6294C19.7238 20.9748 20.2839 20.9748 20.6294 20.6294C20.9748 20.2839 20.9748 19.7238 20.6294 19.3783L19.4746 18.2235C19.1291 17.8781 18.569 17.8781 18.2235 18.2235C17.8781 18.569 17.8781 19.1291 18.2235 19.4746L19.3783 20.6294Z" fill="#4D3B8F"/>
</svg>
