<svg width="24" height="24" viewBox="0 0 24 24" fill="none" xmlns="http://www.w3.org/2000/svg">
<path d="M22.8223 6.81055C23.5768 8.38115 24 10.1411 24 12C24 15.2909 22.6745 18.2715 20.5293 20.4395H3.4707C1.32548 18.2715 0 15.2909 0 12C0 10.1411 0.423235 8.38115 1.17773 6.81055H22.8223Z" fill="#0052B4"/>
<path d="M22.3909 18C20.3158 21.5858 16.4412 23.9999 12.0002 24C7.5593 24 3.68473 21.5858 1.60962 18H22.3909Z" fill="#D80027"/>
<path d="M12 0C18.6274 0 24 5.37258 24 12H0C0 5.37258 5.37258 0 12 0Z" fill="#FFDA44"/>
</svg>
