<svg width="24" height="24" viewBox="0 0 24 24" fill="none" xmlns="http://www.w3.org/2000/svg">
<path d="M18 22.3945C16.235 23.4156 14.1857 24 12 24C9.81428 24 7.76504 23.4156 6 22.3945L6 1.60547C7.76504 0.584448 9.81428 -3.57809e-07 12 -2.62268e-07C14.1857 8.82433e-08 16.235 0.584448 18 1.60547L18 22.3945Z" fill="#EEEEEE"/>
<path d="M6.75 22.7939C2.75482 20.8471 0.00161866 16.7468 -4.71989e-07 12.0039L-4.71648e-07 11.9961C0.00162051 7.25319 2.75482 3.15292 6.75 1.20605L6.75 22.7939Z" fill="#496E2D"/>
<path d="M24 12C24 16.7447 21.2464 20.8465 17.25 22.7939L17.25 1.20605C21.2464 3.1535 24 7.25532 24 12Z" fill="#D80027"/>
<path d="M12 12.9844V13.4531H12.5625L13.0312 12.4219L12 12.9844Z" fill="#FFC635"/>
<path d="M8.01538 11.3438C8.01541 12.4004 8.4352 13.4139 9.18237 14.1611C9.92955 14.9083 10.9431 15.3281 11.9998 15.3281C13.0564 15.3281 14.0699 14.9083 14.8171 14.1611C15.5643 13.4139 15.9841 12.4004 15.9841 11.3438H16.4998C16.4997 12.537 16.026 13.6815 15.1824 14.5254C14.3385 15.3693 13.1932 15.8438 11.9998 15.8438C10.8063 15.8437 9.66199 15.3693 8.81812 14.5254C7.97425 13.6815 7.49978 12.5372 7.49976 11.3438H8.01538ZM9.51538 12.2344C10.2185 12.8437 11.1092 13.2187 11.9998 13.2188C12.9224 13.2159 13.8099 12.8641 14.4841 12.2344C14.5779 12.1406 14.7654 12.1407 14.8591 12.2344C14.9529 12.3281 14.9529 12.5156 14.8123 12.6094C14.1092 13.2655 13.2184 13.6406 12.281 13.7344V14.5312H11.7185V13.7344C10.7811 13.6406 9.89034 13.2656 9.18726 12.6094C9.04677 12.5157 9.04678 12.3282 9.14038 12.2344L9.32788 12.1406L9.51538 12.2344Z" fill="#496E2D"/>
<path d="M13.9216 14.2031C13.3592 14.5781 12.7028 14.8125 11.9998 14.8125C11.3436 14.8125 10.6872 14.5781 10.1248 14.2031L10.406 13.7812C11.3435 14.3906 12.656 14.3905 13.5935 13.7812L13.9216 14.2031Z" fill="#338AF3"/>
<path d="M12.3279 8.15625C13.2185 8.15625 15.6091 8.53125 15.1873 12.4219C14.6717 12.1875 14.2966 11.7187 14.1091 11.2031L12.7966 10.4531L13.031 11.4375L14.6716 12.4219L13.5935 12.9375L13.0779 12.4219V12.9375L12.2341 12.0938L10.8748 12.4219L11.4841 11.3438L11.2966 10.9688C11.0623 10.5469 11.1561 10.0781 11.4841 9.75C11.4841 9.46875 11.2498 9.23438 10.9685 9.23438V8.71875C11.5779 8.71875 12.1873 9.04688 12.4216 9.5625L12.5154 9.75C12.5623 9.70312 13.031 8.67188 11.9998 8.15625H12.3279Z" fill="#584528"/>
<path d="M10.2185 9.14062C10.1249 9.14074 10.1248 9.23443 10.1248 9.32812C10.1252 9.32897 10.1722 9.42176 10.2654 9.42188C10.5935 9.42188 10.9216 9.60938 11.0154 9.84375C11.0623 9.98439 11.1091 10.2656 10.781 10.5469C10.453 10.8749 10.2654 11.1094 10.3591 11.25L10.5935 11.2969C10.8279 11.3906 11.2498 11.5312 11.2029 12.0938C11.156 12.4687 10.8278 12.7031 10.406 12.7031C9.70293 12.703 8.85913 12.1405 8.62476 10.8281L9.14038 10.7344C9.32787 11.8123 9.98413 12.1874 10.406 12.1875C10.5466 12.1875 10.6404 12.1405 10.6873 12.0469C10.6873 11.9531 10.6873 11.9062 10.406 11.8125C10.2654 11.7656 10.0778 11.7187 9.93726 11.5781C9.46862 11.0157 10.1247 10.4532 10.4529 10.1719C10.4998 10.125 10.5466 10.0781 10.4998 10.0312C10.4976 10.0291 10.4044 9.9375 10.2654 9.9375C9.93736 9.93744 9.70287 9.74992 9.60913 9.42188C9.5154 9.14068 9.70297 8.81252 9.98413 8.625L10.2185 9.14062Z" fill="#6DA544"/>
<path d="M10.1248 14.7656C10.3319 14.7656 10.4998 14.9335 10.4998 15.1406C10.4997 15.3477 10.3318 15.5156 10.1248 15.5156C9.91776 15.5155 9.74981 15.3476 9.74976 15.1406C9.74976 14.9336 9.91773 14.7657 10.1248 14.7656ZM13.9216 14.7656C14.1287 14.7656 14.2966 14.9335 14.2966 15.1406C14.2966 15.3477 14.1287 15.5156 13.9216 15.5156C13.7146 15.5155 13.5467 15.3476 13.5466 15.1406C13.5466 14.9336 13.7146 14.7657 13.9216 14.7656ZM8.85913 13.7812C9.06624 13.7812 9.23413 13.9491 9.23413 14.1562C9.23408 14.3633 9.06621 14.5312 8.85913 14.5312C8.65213 14.5312 8.48418 14.3633 8.48413 14.1562C8.48413 13.9492 8.6521 13.7813 8.85913 13.7812ZM15.1873 13.7812C15.3944 13.7812 15.5623 13.9491 15.5623 14.1562C15.5622 14.3633 15.3943 14.5312 15.1873 14.5312C14.9803 14.5312 14.8123 14.3633 14.8123 14.1562C14.8123 13.9492 14.9802 13.7813 15.1873 13.7812ZM8.06226 12.5156C8.26936 12.5156 8.43726 12.6835 8.43726 12.8906C8.43721 13.0977 8.26933 13.2656 8.06226 13.2656C7.85526 13.2655 7.68731 13.0976 7.68726 12.8906C7.68726 12.6836 7.85523 12.5157 8.06226 12.5156ZM15.9841 12.5156C16.1912 12.5156 16.3591 12.6835 16.3591 12.8906C16.3591 13.0977 16.1912 13.2656 15.9841 13.2656C15.7771 13.2655 15.6092 13.0976 15.6091 12.8906C15.6091 12.6836 15.7771 12.5157 15.9841 12.5156ZM11.2966 9C11.3786 9.08199 11.3894 9.23607 11.2966 9.30469L10.406 9.75V9.23438L10.9685 8.71875L11.2966 9Z" fill="#FFC635"/>
<path d="M12.281 14.0156C12.5658 14.0156 12.7966 14.2465 12.7966 14.5312C12.7966 14.816 12.5657 15.0469 12.281 15.0469H11.7185C11.4338 15.0468 11.2029 14.8159 11.2029 14.5312C11.2029 14.2465 11.4338 14.0157 11.7185 14.0156H12.281Z" fill="#FF9811"/>
</svg>
