<svg width="24" height="24" viewBox="0 0 24 24" fill="none" xmlns="http://www.w3.org/2000/svg">
<path d="M23.5876 15.1304C23.8565 14.1324 24 13.083 24 12L23.5876 8.86959C23.2868 7.75333 22.829 6.70147 22.2393 5.73914L19.4709 2.60869C17.4223 0.976816 14.8277 0.00120207 12.0052 0H11.9948C9.17234 0.00120158 6.57774 0.976815 4.5291 2.60869L1.76073 5.73914C1.17105 6.70147 0.713227 7.75333 0.412405 8.86959L0 12L1.13056e-06 12.0053C0.000465378 13.0864 0.143897 14.1341 0.412415 15.1304L1.76073 18.2609C2.49517 19.4594 3.43415 20.5191 4.52911 21.3913L12 24L19.4709 21.3913C20.5658 20.5191 21.5048 19.4594 22.2393 18.2609L23.5876 15.1304Z" fill="#EEEEEE"/>
<path d="M23.5876 8.86976C23.8565 9.86775 24 10.9172 24 12.0002H0C0 10.9172 0.143461 9.86775 0.412417 8.86976H23.5876Z" fill="#D80027"/>
<path d="M19.4709 2.60889C20.5658 3.48109 21.5048 4.54077 22.2393 5.73934H1.76073C2.49517 4.54077 3.43416 3.48109 4.52911 2.60889H19.4709Z" fill="#D80027"/>
<path d="M22.2393 18.2611C22.829 17.2987 23.2868 16.2469 23.5876 15.1306H0.412404C0.713226 16.2469 1.17105 17.2987 1.76072 18.2611H22.2393Z" fill="#D80027"/>
<path d="M19.4709 21.3915H4.5291C6.57651 23.0224 9.16926 23.9978 11.9897 24.0002H12.0103C14.8307 23.9978 17.4235 23.0224 19.4709 21.3915Z" fill="#D80027"/>
<path d="M0 11.5118C0.256135 5.11073 5.52635 0 11.9902 0C11.9935 0 11.9967 1.29233e-06 12 3.87651e-06V12H0V11.5118Z" fill="#0052B4"/>
<path d="M2.50415 9.34375H3.81177L2.75415 10.1123L3.15845 11.3564L2.09985 10.5879L1.04224 11.3564L1.44653 10.1123L0.387939 9.34375H1.69556L2.09985 8.09961L2.50415 9.34375ZM6.40454 9.34375H7.71216L6.65356 10.1123L7.05786 11.3564L6.00024 10.5879L4.94165 11.3564L5.34595 10.1123L4.28833 9.34375H5.59595L6.00024 8.09961L6.40454 9.34375ZM10.304 9.34375H11.6116L10.554 10.1123L10.9583 11.3564L9.89966 10.5879L8.84204 11.3564L9.24634 10.1123L8.18774 9.34375H9.49634L9.89966 8.09961L10.304 9.34375ZM2.50415 5.44336H3.81177L2.75415 6.21289L3.15845 7.45605L2.09985 6.6875L1.04224 7.45605L1.38306 6.4082C1.6613 5.881 1.97757 5.37748 2.32837 4.90039L2.50415 5.44336ZM6.40454 5.44336H7.71216L6.65356 6.21289L7.05786 7.45605L6.00024 6.6875L4.94165 7.45605L5.34595 6.21289L4.28833 5.44336H5.59595L6.00024 4.2002L6.40454 5.44336ZM10.304 5.44336H11.6116L10.554 6.21289L10.9583 7.45605L9.89966 6.6875L8.84204 7.45605L9.24634 6.21289L8.18774 5.44336H9.49634L9.89966 4.2002L10.304 5.44336ZM6.40454 1.54395H7.71216L6.65356 2.3125L7.05786 3.55664L6.00024 2.78711L4.94165 3.55664L5.34595 2.3125L5.13696 2.16016C5.52874 1.88639 5.93654 1.63446 6.3606 1.4082L6.40454 1.54395ZM10.304 1.54395H11.6116L10.554 2.3125L10.9583 3.55664L9.89966 2.78711L8.84204 3.55664L9.24634 2.3125L8.18774 1.54395H9.49634L9.89966 0.299805L10.304 1.54395Z" fill="#EEEEEE"/>
</svg>
