<svg width="24" height="24" viewBox="0 0 24 24" fill="none" xmlns="http://www.w3.org/2000/svg">
<path d="M22.3945 6C23.4156 7.76504 24 9.81428 24 12C24 14.1857 23.4156 16.235 22.3945 18H1.60547C0.584449 16.235 0 14.1857 0 12C2.54971e-07 9.81428 0.584448 7.76504 1.60547 6H22.3945Z" fill="#0052B4"/>
<path d="M22.7939 17.25C20.8471 21.2452 16.7468 23.9984 12.0039 24H11.9961C7.25319 23.9984 3.15292 21.2452 1.20605 17.25H22.7939Z" fill="#D80027"/>
<path d="M12 0C16.7447 1.93718e-06 20.8465 2.75365 22.7939 6.75H1.20605C3.1535 2.75365 7.25532 0 12 0Z" fill="#FFDA44"/>
<path d="M20.7829 14.3557L20.1491 14.851L20.4241 15.6067L19.7572 15.157L19.1234 15.6522L19.345 14.879L18.6782 14.4292L19.4821 14.4011L19.7039 13.6279L19.9791 14.3837L20.7829 14.3557Z" fill="#EEEEEE"/>
<path d="M19.1598 11.5444L18.7336 12.2266L19.2507 12.8426L18.4702 12.6483L18.0439 13.3303L17.9877 12.5279L17.2073 12.3333L17.9531 12.0319L17.8971 11.2295L18.4141 11.8458L19.1598 11.5444Z" fill="#EEEEEE"/>
<path d="M16.6731 9.45801L16.506 10.2448L17.2025 10.647L16.4026 10.7313L16.2354 11.5179L15.9082 10.7832L15.1082 10.8671L15.706 10.3289L15.3789 9.59418L16.0754 9.99627L16.6731 9.45801Z" fill="#EEEEEE"/>
<path d="M13.6231 8.34814L13.7352 9.14469L14.5272 9.28429L13.8043 9.63707L13.9163 10.4336L13.3575 9.85494L12.6344 10.2075L13.0122 9.49724L12.4534 8.91871L13.2456 9.05835L13.6231 8.34814Z" fill="#EEEEEE"/>
<path d="M10.3772 8.34814L10.7549 9.05835L11.5469 8.91861L10.9883 9.49738L11.3658 10.2076L10.6429 9.85494L10.084 10.4334L10.1961 9.63707L9.47314 9.28447L10.2653 9.14469L10.3772 8.34814Z" fill="#EEEEEE"/>
<path d="M7.32687 9.45801L7.92472 9.99627L8.62114 9.59418L8.29409 10.3292L8.89179 10.8673L8.09187 10.7832L7.76459 11.5179L7.59758 10.7312L6.79761 10.6472L7.49417 10.2449L7.32687 9.45801Z" fill="#EEEEEE"/>
<path d="M4.84022 11.5448L5.58614 11.8461L6.10298 11.23L6.04706 12.0325L6.79275 12.3339L6.01232 12.5284L5.95612 13.3306L5.53003 12.6487L4.74951 12.8431L5.26654 12.227L4.84022 11.5448Z" fill="#EEEEEE"/>
<path d="M3.21729 14.3556L4.02129 14.3836L4.29625 13.6279L4.51821 14.4012L5.32197 14.4293L4.65513 14.8791L4.87675 15.6522L4.243 15.157L3.57611 15.6067L3.85122 14.8509L3.21729 14.3556Z" fill="#EEEEEE"/>
</svg>
