<svg width="51" height="50" viewBox="0 0 51 50" fill="none" xmlns="http://www.w3.org/2000/svg">
<g id="Communication / Chat_Circle_Remove">
<path id="Vector" d="M18.95 25H31.45M25.1993 43.7499C21.7928 43.7499 18.5985 42.8415 15.8454 41.2537L15.8368 41.2487C15.5705 41.0951 15.4369 41.0181 15.3103 40.9831C15.1912 40.9502 15.0849 40.939 14.9617 40.9475C14.8295 40.9565 14.6904 41.0028 14.4168 41.094L9.61163 42.6957L9.59907 42.7003C8.58969 43.0368 8.08504 43.205 7.74803 43.0848C7.45352 42.9798 7.22041 42.7474 7.1154 42.4529C6.99495 42.1151 7.16392 41.6082 7.50187 40.5943L7.50389 40.588L9.1056 35.7829C9.1971 35.5084 9.24173 35.3711 9.25079 35.2386C9.25922 35.1154 9.25002 35.0083 9.21711 34.8893C9.18222 34.763 9.10518 34.6295 8.9524 34.3646L8.94625 34.3539C7.35844 31.6008 6.45001 28.4065 6.45001 25C6.45001 14.6447 14.8447 6.25 25.2 6.25C35.5554 6.25 43.95 14.6447 43.95 25C43.95 35.3553 35.5546 43.7499 25.1993 43.7499Z" stroke="#4B4A49" stroke-width="2" stroke-linecap="round" stroke-linejoin="round"/>
</g>
</svg>
