<?xml version="1.0" encoding="UTF-8"?>
<svg id="Capa_1" data-name="Capa 1" xmlns="http://www.w3.org/2000/svg" xmlns:xlink="http://www.w3.org/1999/xlink" viewBox="0 0 306.85 306.85">
  <defs>
    <style>
      .cls-1 {
        fill: url(#Degradado_sin_nombre_8-3);
      }

      .cls-2 {
        fill: url(#Degradado_sin_nombre_8-2);
      }

      .cls-3 {
        fill: url(#Degradado_sin_nombre_8);
      }
    </style>
    <linearGradient id="Degradado_sin_nombre_8" data-name="Degradado sin nombre 8" x1="-60.98" y1="108.51" x2="101.6" y2="-4.64" gradientTransform="translate(162.19 164.87) rotate(-10.16)" gradientUnits="userSpaceOnUse">
      <stop offset="0" stop-color="#4d3b8f"/>
      <stop offset=".1" stop-color="#5f3c8f"/>
      <stop offset=".29" stop-color="#8f3f8f"/>
      <stop offset=".56" stop-color="#dc448f"/>
      <stop offset=".6" stop-color="#e74590"/>
      <stop offset=".67" stop-color="#e7498a"/>
      <stop offset=".77" stop-color="#e95479"/>
      <stop offset=".88" stop-color="#ec675e"/>
      <stop offset="1" stop-color="#f0813a"/>
    </linearGradient>
    <linearGradient id="Degradado_sin_nombre_8-2" data-name="Degradado sin nombre 8" x1="-26.44" y1="-21.55" x2="85.53" y2="-99.47" xlink:href="#Degradado_sin_nombre_8"/>
    <linearGradient id="Degradado_sin_nombre_8-3" data-name="Degradado sin nombre 8" x1="-130.32" y1="26.67" x2="-16.44" y2="-52.59" xlink:href="#Degradado_sin_nombre_8"/>
  </defs>
  <path class="cls-3" d="M176.2,276.27c-23.1,4.14-46.63,1.55-67.9-6.83,1.19-.15,2.37-.33,3.55-.54,1.97-.35,4.02-.82,6.26-1.42,9.93-2.74,18.91-7.48,26.76-14.11,19.17-16.18,28.33-41.58,23.9-66.28-1.37-7.62-1.07-15.29.87-22.8.82-3.15,1.95-6.26,3.34-9.22,3.26-6.95,8.06-13.22,13.89-18.13,7.15-6.03,15.79-10.09,24.99-11.73,9.2-1.65,18.72-.85,27.51,2.32,7.3,2.64,13.81,6.74,19.34,12.21,7.88,7.76,13.08,17.63,15.04,28.54,1.55,8.64.94,17.57-1.77,25.86-.19.62-.36,1.11-.54,1.6-7.46,20.64-20.22,38.98-36.92,53.08-16.74,14.12-36.91,23.62-58.33,27.46Z"/>
  <path class="cls-2" d="M196.39,36.04c-20.55-7.43-42.81-9.31-64.37-5.44l-.84.15c-8.87,1.73-17.21,5.74-24.12,11.58l-.8.66c-6.76,5.95-11.93,13.53-14.98,21.96-.6,1.69-1.08,3.22-1.46,4.74-1.95,7.51-2.24,15.18-.87,22.8,1.39,7.74,4.5,15.07,9.04,21.47,10.03-14.22,25.42-24.66,43.9-27.97,24.8-4.45,48.82,5.1,64.12,22.94.95-.21,1.89-.44,2.84-.61,12.16-2.18,24.73-1.12,36.36,3.07,9.65,3.49,18.25,8.91,25.56,16.12,2.38,2.34,4.57,4.83,6.57,7.45-6.73-43.86-36.64-82.94-80.95-98.92Z"/>
  <path class="cls-1" d="M86.51,165.55c-2.18-12.16-.96-24.12,2.9-34.98-.62-.68-1.25-1.34-1.85-2.05-7.96-9.45-13.32-20.87-15.5-33.02-1.81-10.07-1.42-20.21,1.14-30.08.5-2,1.13-4.04,1.93-6.28.42-1.14.86-2.27,1.33-3.39-34.7,27.71-53.6,73.14-45.26,119.69,3.87,21.56,13.36,41.78,27.51,58.53.32.39.66.78,1.02,1.15l.14.15c5.84,6.47,13.25,11.45,21.45,14.41,8.78,3.18,18.29,3.99,27.5,2.34,1.49-.27,3.07-.63,4.78-1.09,7.46-2.06,14.26-5.64,20.2-10.66,6.1-5.15,10.84-11.54,14.06-18.6-30.03-2.67-55.79-25.01-61.37-56.12Z"/>
</svg>