<?xml version="1.0" encoding="UTF-8"?>
<svg id="Capa_1" data-name="Capa 1" xmlns="http://www.w3.org/2000/svg" viewBox="0 0 876.47 207.29">
  <defs>
    <style>
      .cls-1 {
        fill: #fff;
      }
    </style>
  </defs>
  <g>
    <path class="cls-1" d="M119.54,191.73c-16.56,2.97-33.43,1.11-48.68-4.89.85-.11,1.7-.24,2.55-.39,1.41-.25,2.88-.59,4.49-1.02,7.12-1.96,13.56-5.36,19.19-10.11,13.74-11.6,20.31-29.81,17.14-47.53-.98-5.46-.77-10.96.63-16.35.59-2.26,1.4-4.49,2.39-6.61,2.34-4.98,5.78-9.48,9.96-13,5.12-4.32,11.32-7.23,17.92-8.41,6.6-1.18,13.42-.61,19.73,1.67,5.23,1.89,9.9,4.83,13.87,8.75,5.65,5.57,9.38,12.64,10.78,20.47,1.11,6.19.67,12.6-1.27,18.54-.14.45-.26.79-.39,1.14-5.35,14.8-14.5,27.95-26.48,38.06-12,10.13-26.46,16.93-41.82,19.69Z"/>
    <path class="cls-1" d="M134.01,19.48c-14.73-5.33-30.69-6.67-46.15-3.9l-.6.11c-6.36,1.24-12.34,4.11-17.3,8.3l-.57.48c-4.84,4.27-8.55,9.7-10.74,15.75-.43,1.21-.77,2.31-1.05,3.4-1.4,5.38-1.61,10.88-.63,16.35.99,5.55,3.23,10.81,6.48,15.39,7.19-10.19,18.23-17.68,31.48-20.05,17.78-3.19,35.01,3.66,45.98,16.45.68-.15,1.35-.31,2.04-.43,8.72-1.56,17.73-.8,26.07,2.2,6.92,2.5,13.09,6.39,18.33,11.56,1.71,1.68,3.28,3.46,4.71,5.34-4.82-31.45-26.27-59.47-58.04-70.93Z"/>
    <path class="cls-1" d="M55.23,112.34c-1.56-8.72-.69-17.29,2.08-25.08-.44-.49-.9-.96-1.32-1.47-5.71-6.78-9.55-14.97-11.11-23.67-1.29-7.22-1.02-14.49.82-21.57.36-1.43.81-2.9,1.38-4.5.3-.82.61-1.63.95-2.43C23.15,53.48,9.59,86.06,15.58,119.43c2.77,15.46,9.58,29.96,19.73,41.96.23.28.48.56.73.83l.1.11c4.19,4.64,9.5,8.21,15.38,10.33,6.3,2.28,13.12,2.86,19.72,1.68,1.07-.19,2.2-.45,3.43-.78,5.35-1.47,10.22-4.05,14.48-7.64,4.37-3.69,7.77-8.28,10.08-13.34-21.53-1.92-40-17.93-44-40.24Z"/>
  </g>
  <g>
    <path class="cls-1" d="M307.9,82.53c-5.31-8.56-15.25-13.79-26.53-13.79-18.91,0-33.16,14.08-33.16,32.75s14.25,33.02,33.16,33.02c11.22,0,21.3-5.4,26.39-13.94v1.18c0,29.13-23.94,29.97-26.66,29.97-8.15,0-15.91-3.49-21.31-9.58l-.51-.57-3.54,4.61.35.39c6.37,7.07,15.3,10.96,25.14,10.96,2.66,0,11.95-.45,20.02-6.2,8.62-6.14,13-16.05,13-29.44v-51.77h-6.36v12.41ZM307.76,101.49c0,14.7-11.65,26.66-25.98,26.66-15.53,0-26.8-11.21-26.8-26.66s11.46-26.39,26.66-26.39,26.11,11.59,26.11,26.39Z"/>
    <path class="cls-1" d="M387.57,83.46c-5.46-9.01-15.66-14.71-26.66-14.71-19.21,0-33.16,14.7-33.16,34.95s14.25,34.95,33.16,34.95c11.06,0,21.44-6.02,26.66-15.21v13.84h6.5v-67.15h-6.5v13.33ZM387.57,103.7c0,16.03-11.53,28.59-26.25,28.59-15.53,0-26.8-12.03-26.8-28.59s11.46-28.59,26.66-28.59,26.39,12.56,26.39,28.59Z"/>
    <rect class="cls-1" x="410.86" y="45.31" width="6.5" height="91.96"/>
    <path class="cls-1" d="M490.53,83.46c-5.46-9.01-15.66-14.71-26.66-14.71-19.21,0-33.16,14.7-33.16,34.95s14.25,34.95,33.16,34.95c11.06,0,21.44-6.02,26.66-15.21v13.84h6.5v-67.15h-6.5v13.33ZM490.53,103.7c0,16.03-11.53,28.59-26.25,28.59-15.53,0-26.8-12.03-26.8-28.59s11.46-28.59,26.66-28.59,26.39,12.56,26.39,28.59Z"/>
    <path class="cls-1" d="M600.72,125.08c-.36.79-.82,1.87-1.19,2.73-.31-.77-.71-1.72-1.11-2.6l-26.36-55.08h-14.48l-19.9,25.18c-.7.88-1.5,2.11-2.01,2.93-.54-.81-1.35-2.05-1.97-2.93l-20.04-25.19h-8.08l25.86,32.75-26.96,34.4h8.08l21.02-26.45c.7-.96,1.49-2.27,1.99-3.14.55.87,1.4,2.19,2.1,3.16l20.82,26.19.19.24h7.93l-26.82-34.4,25.49-32.45,31.04,64.16-1.53,3.31c-5.93,12.42-11.3,13.43-17.21,13.43h-.63v6.22h.63c8.2,0,15.07-1.25,22.63-17.04l33.37-70.37h-6.91l-25.95,54.95Z"/>
    <path class="cls-1" d="M676.59,67.51c-10.92,0-19.9,4.13-25.01,11.42v-8.8h-11.32v87.41h11.74v-30.43c5.12,7.37,13.95,11.55,24.59,11.55,18.43,0,32.33-15.32,32.33-35.64s-13.9-35.5-32.33-35.5ZM696.91,103.01c0,14.01-9.53,24.18-22.67,24.18s-22.25-10.62-22.25-24.18,9.77-24.04,22.25-24.04c13.13,0,22.67,10.11,22.67,24.04Z"/>
    <path class="cls-1" d="M772.97,79.05c-5.12-7.37-13.96-11.55-24.59-11.55-18.43,0-32.33,15.32-32.33,35.64s13.9,35.5,32.33,35.5c10.7,0,19.53-4.17,24.59-11.52v10.15h11.74v-67.15h-11.74v8.93ZM772.97,103.15c0,13.48-9.77,24.04-22.25,24.04-13.13,0-22.67-10.11-22.67-24.04s9.53-24.18,22.67-24.18,22.25,10.62,22.25,24.18Z"/>
    <path class="cls-1" d="M850.14,70.13s-20.63,48.84-21.74,50.55c-.87-1.69-1.88-4.2-2.91-6.35l-20.57-43.95-.12-.24h-12.29l29.91,62.1-1.38,2.77c-4.53,9.6-8.88,11.36-15.83,11.36h-.63v11.18h.63c8.35,0,17.88-1.34,25.25-17.33l31.84-70.09h-12.15Z"/>
  </g>
</svg>