<?xml version="1.0" encoding="UTF-8"?>
<svg id="Capa_1" data-name="Capa 1" xmlns="http://www.w3.org/2000/svg" xmlns:xlink="http://www.w3.org/1999/xlink" viewBox="0 0 642.42 380.97">
  <defs>
    <style>
      .cls-1 {
        fill: #4b4a49;
      }

      .cls-2 {
        fill: url(#Degradado_sin_nombre_8-3);
      }

      .cls-3 {
        fill: url(#Degradado_sin_nombre_8-2);
      }

      .cls-4 {
        fill: url(#Degradado_sin_nombre_8);
      }
    </style>
    <linearGradient id="Degradado_sin_nombre_8" data-name="Degradado sin nombre 8" x1="235.64" y1="57.67" x2="367.24" y2="-33.91" gradientTransform="translate(53.14 204.41) rotate(-10.16)" gradientUnits="userSpaceOnUse">
      <stop offset="0" stop-color="#4d3b8f"/>
      <stop offset=".1" stop-color="#5f3c8f"/>
      <stop offset=".29" stop-color="#8f3f8f"/>
      <stop offset=".56" stop-color="#dc448f"/>
      <stop offset=".6" stop-color="#e74590"/>
      <stop offset=".67" stop-color="#e7498a"/>
      <stop offset=".77" stop-color="#e95479"/>
      <stop offset=".88" stop-color="#ec675e"/>
      <stop offset="1" stop-color="#f0813a"/>
    </linearGradient>
    <linearGradient id="Degradado_sin_nombre_8-2" data-name="Degradado sin nombre 8" x1="263.6" y1="-47.59" x2="354.23" y2="-110.67" xlink:href="#Degradado_sin_nombre_8"/>
    <linearGradient id="Degradado_sin_nombre_8-3" data-name="Degradado sin nombre 8" x1="179.52" y1="-8.57" x2="271.69" y2="-72.72" xlink:href="#Degradado_sin_nombre_8"/>
  </defs>
  <g>
    <path class="cls-4" d="M339.69,214.6c-18.7,3.35-37.74,1.25-54.95-5.53.96-.12,1.92-.27,2.88-.44,1.6-.29,3.25-.66,5.07-1.15,8.03-2.21,15.31-6.05,21.66-11.42,15.51-13.1,22.93-33.65,19.34-53.65-1.11-6.17-.87-12.38.71-18.46.67-2.55,1.58-5.06,2.7-7.46,2.64-5.62,6.52-10.7,11.24-14.68,5.78-4.88,12.78-8.16,20.23-9.5,7.45-1.34,15.15-.68,22.27,1.88,5.9,2.13,11.17,5.46,15.65,9.88,6.38,6.28,10.59,14.27,12.17,23.1,1.25,6.99.76,14.22-1.43,20.93-.16.5-.29.9-.44,1.29-6.04,16.71-16.37,31.55-29.89,42.96-13.55,11.43-29.87,19.12-47.21,22.23Z"/>
    <path class="cls-3" d="M356.03,20.16c-16.63-6.01-34.65-7.53-52.1-4.41l-.68.12c-7.18,1.4-13.93,4.64-19.52,9.37l-.65.54c-5.47,4.82-9.66,10.95-12.12,17.77-.49,1.37-.87,2.61-1.18,3.83-1.57,6.08-1.81,12.29-.71,18.46,1.12,6.26,3.64,12.2,7.32,17.38,8.12-11.51,20.58-19.96,35.53-22.64,20.07-3.6,39.52,4.13,51.9,18.57.76-.17,1.53-.35,2.3-.49,9.84-1.76,20.02-.9,29.43,2.49,7.81,2.82,14.77,7.21,20.69,13.05,1.93,1.9,3.7,3.91,5.32,6.03-5.45-35.5-29.65-67.13-65.52-80.07Z"/>
    <path class="cls-2" d="M267.1,124.99c-1.76-9.84-.78-19.52,2.35-28.31-.5-.55-1.01-1.09-1.49-1.66-6.44-7.65-10.78-16.89-12.55-26.72-1.46-8.15-1.15-16.36.92-24.35.41-1.62.92-3.27,1.56-5.08.34-.92.69-1.84,1.08-2.74-28.08,22.43-43.39,59.2-36.63,96.87,3.13,17.45,10.81,33.82,22.27,47.37.26.32.54.63.82.93l.11.12c4.73,5.24,10.73,9.27,17.36,11.66,7.11,2.57,14.81,3.23,22.26,1.89,1.2-.22,2.49-.51,3.87-.88,6.04-1.66,11.54-4.57,16.35-8.63,4.94-4.17,8.77-9.34,11.38-15.06-24.31-2.16-45.16-20.24-49.67-45.42Z"/>
  </g>
  <g>
    <path class="cls-1" d="M73.86,291.8c-5.31-8.56-15.25-13.79-26.53-13.79-18.91,0-33.16,14.08-33.16,32.75s14.25,33.02,33.16,33.02c11.22,0,21.3-5.4,26.39-13.94v1.18c0,29.13-23.94,29.97-26.66,29.97-8.15,0-15.91-3.49-21.31-9.58l-.51-.57-3.54,4.61.35.39c6.37,7.07,15.3,10.96,25.14,10.96,2.66,0,11.95-.45,20.02-6.2,8.62-6.14,13-16.05,13-29.44v-51.77h-6.36v12.41ZM73.72,310.76c0,14.7-11.65,26.66-25.98,26.66-15.53,0-26.8-11.21-26.8-26.66s11.46-26.39,26.66-26.39,26.11,11.59,26.11,26.39Z"/>
    <path class="cls-1" d="M153.53,292.72c-5.46-9.01-15.66-14.71-26.66-14.71-19.21,0-33.16,14.7-33.16,34.95s14.25,34.95,33.16,34.95c11.06,0,21.44-6.02,26.66-15.21v13.84h6.5v-67.15h-6.5v13.33ZM153.53,312.96c0,16.03-11.53,28.59-26.25,28.59-15.53,0-26.8-12.03-26.8-28.59s11.46-28.59,26.66-28.59,26.39,12.56,26.39,28.59Z"/>
    <rect class="cls-1" x="176.82" y="254.58" width="6.5" height="91.96"/>
    <path class="cls-1" d="M256.49,292.72c-5.46-9.01-15.66-14.71-26.66-14.71-19.21,0-33.16,14.7-33.16,34.95s14.25,34.95,33.16,34.95c11.06,0,21.44-6.02,26.66-15.21v13.84h6.5v-67.15h-6.5v13.33ZM256.49,312.96c0,16.03-11.53,28.59-26.25,28.59-15.53,0-26.8-12.03-26.8-28.59s11.46-28.59,26.66-28.59,26.39,12.56,26.39,28.59Z"/>
    <path class="cls-1" d="M366.67,334.34c-.36.79-.82,1.87-1.19,2.73-.31-.77-.71-1.72-1.11-2.6l-26.36-55.08h-14.48l-19.9,25.18c-.7.88-1.5,2.11-2.01,2.93-.54-.81-1.35-2.05-1.97-2.93l-20.04-25.19h-8.08l25.86,32.75-26.96,34.4h8.08l21.02-26.45c.7-.96,1.49-2.27,1.99-3.14.55.87,1.4,2.19,2.1,3.16l20.82,26.19.19.24h7.93l-26.82-34.4,25.49-32.45,31.04,64.16-1.53,3.31c-5.93,12.42-11.3,13.43-17.21,13.43h-.63v6.22h.63c8.2,0,15.07-1.25,22.63-17.04l33.37-70.37h-6.91l-25.95,54.95Z"/>
    <path class="cls-1" d="M442.54,276.77c-10.92,0-19.9,4.13-25.01,11.42v-8.8h-11.32v87.41h11.74v-30.43c5.12,7.37,13.95,11.55,24.59,11.55,18.43,0,32.33-15.32,32.33-35.64s-13.9-35.5-32.33-35.5ZM462.87,312.27c0,14.01-9.53,24.18-22.67,24.18s-22.25-10.62-22.25-24.18,9.77-24.04,22.25-24.04c13.13,0,22.67,10.11,22.67,24.04Z"/>
    <path class="cls-1" d="M538.93,288.32c-5.12-7.37-13.96-11.55-24.59-11.55-18.43,0-32.33,15.32-32.33,35.64s13.9,35.5,32.33,35.5c10.7,0,19.53-4.17,24.59-11.52v10.15h11.74v-67.15h-11.74v8.93ZM538.93,312.41c0,13.48-9.77,24.04-22.25,24.04-13.13,0-22.67-10.11-22.67-24.04s9.53-24.18,22.67-24.18,22.25,10.62,22.25,24.18Z"/>
    <path class="cls-1" d="M616.1,279.39s-20.63,48.84-21.74,50.55c-.87-1.69-1.88-4.2-2.91-6.35l-20.57-43.95-.12-.24h-12.29l29.91,62.1-1.38,2.77c-4.53,9.6-8.88,11.36-15.83,11.36h-.63v11.18h.63c8.35,0,17.88-1.34,25.25-17.33l31.84-70.09h-12.15Z"/>
  </g>
</svg>