<svg width="105" height="36" viewBox="0 0 105 36" fill="none" xmlns="http://www.w3.org/2000/svg">
<rect width="105" height="36" rx="18" fill="#4D3B8F"/>
<path d="M54.437 21.508C54.437 21.644 54.389 21.76 54.293 21.856C54.205 21.952 54.093 22 53.957 22C53.813 22 53.697 21.952 53.609 21.856C53.521 21.76 53.477 21.644 53.477 21.508V16.18C53.477 16.044 53.521 15.932 53.609 15.844C53.705 15.748 53.821 15.7 53.957 15.7C54.093 15.7 54.205 15.748 54.293 15.844C54.389 15.932 54.437 16.044 54.437 16.18V21.508ZM53.957 14.896C53.757 14.896 53.609 14.856 53.513 14.776C53.417 14.696 53.369 14.572 53.369 14.404V14.236C53.369 14.068 53.421 13.944 53.525 13.864C53.629 13.784 53.777 13.744 53.969 13.744C54.161 13.744 54.305 13.784 54.401 13.864C54.497 13.944 54.545 14.068 54.545 14.236V14.404C54.545 14.572 54.493 14.696 54.389 14.776C54.293 14.856 54.149 14.896 53.957 14.896ZM59.0054 15.64C59.5494 15.64 59.9774 15.752 60.2894 15.976C60.6014 16.2 60.8214 16.5 60.9494 16.876C61.0854 17.252 61.1534 17.672 61.1534 18.136V21.508C61.1534 21.644 61.1054 21.76 61.0094 21.856C60.9214 21.952 60.8094 22 60.6734 22C60.5374 22 60.4214 21.952 60.3254 21.856C60.2374 21.76 60.1934 21.644 60.1934 21.508V18.16C60.1934 17.856 60.1454 17.584 60.0494 17.344C59.9614 17.096 59.8094 16.9 59.5934 16.756C59.3854 16.604 59.0974 16.528 58.7294 16.528C58.3934 16.528 58.0854 16.604 57.8054 16.756C57.5254 16.9 57.3014 17.096 57.1334 17.344C56.9654 17.584 56.8814 17.856 56.8814 18.16V21.508C56.8814 21.644 56.8334 21.76 56.7374 21.856C56.6494 21.952 56.5374 22 56.4014 22C56.2654 22 56.1494 21.952 56.0534 21.856C55.9654 21.76 55.9214 21.644 55.9214 21.508V16.276C55.9214 16.14 55.9654 16.028 56.0534 15.94C56.1494 15.844 56.2654 15.796 56.4014 15.796C56.5454 15.796 56.6614 15.844 56.7494 15.94C56.8374 16.028 56.8814 16.14 56.8814 16.276V17.128L56.6414 17.392C56.6814 17.184 56.7734 16.976 56.9174 16.768C57.0614 16.552 57.2414 16.36 57.4574 16.192C57.6734 16.024 57.9134 15.892 58.1774 15.796C58.4414 15.692 58.7174 15.64 59.0054 15.64ZM63.6133 21.508C63.6133 21.644 63.5653 21.76 63.4693 21.856C63.3813 21.952 63.2693 22 63.1333 22C62.9893 22 62.8733 21.952 62.7853 21.856C62.6973 21.76 62.6533 21.644 62.6533 21.508V16.18C62.6533 16.044 62.6973 15.932 62.7853 15.844C62.8813 15.748 62.9973 15.7 63.1333 15.7C63.2693 15.7 63.3813 15.748 63.4693 15.844C63.5653 15.932 63.6133 16.044 63.6133 16.18V21.508ZM63.1333 14.896C62.9333 14.896 62.7853 14.856 62.6893 14.776C62.5933 14.696 62.5453 14.572 62.5453 14.404V14.236C62.5453 14.068 62.5973 13.944 62.7013 13.864C62.8053 13.784 62.9533 13.744 63.1453 13.744C63.3373 13.744 63.4813 13.784 63.5773 13.864C63.6733 13.944 63.7213 14.068 63.7213 14.236V14.404C63.7213 14.572 63.6693 14.696 63.5653 14.776C63.4693 14.856 63.3253 14.896 63.1333 14.896ZM67.8577 15.64C68.2657 15.64 68.6337 15.684 68.9617 15.772C69.2897 15.86 69.5497 15.98 69.7417 16.132C69.9337 16.284 70.0297 16.456 70.0297 16.648C70.0297 16.752 69.9937 16.852 69.9217 16.948C69.8497 17.044 69.7537 17.092 69.6337 17.092C69.5217 17.092 69.4297 17.072 69.3577 17.032C69.2937 16.992 69.2297 16.94 69.1657 16.876C69.1097 16.812 69.0297 16.756 68.9257 16.708C68.8297 16.652 68.6897 16.608 68.5057 16.576C68.3217 16.544 68.1377 16.528 67.9537 16.528C67.5137 16.528 67.1257 16.632 66.7897 16.84C66.4617 17.048 66.2017 17.328 66.0097 17.68C65.8177 18.032 65.7217 18.432 65.7217 18.88C65.7217 19.328 65.8137 19.728 65.9977 20.08C66.1817 20.432 66.4377 20.712 66.7657 20.92C67.0937 21.128 67.4737 21.232 67.9057 21.232C68.1857 21.232 68.4097 21.208 68.5777 21.16C68.7457 21.112 68.8857 21.056 68.9977 20.992C69.1417 20.912 69.2497 20.832 69.3217 20.752C69.4017 20.672 69.5057 20.632 69.6337 20.632C69.7697 20.632 69.8737 20.676 69.9457 20.764C70.0257 20.852 70.0657 20.96 70.0657 21.088C70.0657 21.232 69.9657 21.384 69.7657 21.544C69.5657 21.704 69.2937 21.84 68.9497 21.952C68.6137 22.064 68.2297 22.12 67.7977 22.12C67.1897 22.12 66.6577 21.98 66.2017 21.7C65.7457 21.412 65.3897 21.024 65.1337 20.536C64.8857 20.04 64.7617 19.488 64.7617 18.88C64.7617 18.272 64.8897 17.724 65.1457 17.236C65.4097 16.748 65.7737 16.36 66.2377 16.072C66.7017 15.784 67.2417 15.64 67.8577 15.64ZM72.0043 21.508C72.0043 21.644 71.9563 21.76 71.8603 21.856C71.7723 21.952 71.6603 22 71.5243 22C71.3803 22 71.2643 21.952 71.1763 21.856C71.0883 21.76 71.0443 21.644 71.0443 21.508V16.18C71.0443 16.044 71.0883 15.932 71.1763 15.844C71.2723 15.748 71.3883 15.7 71.5243 15.7C71.6603 15.7 71.7723 15.748 71.8603 15.844C71.9563 15.932 72.0043 16.044 72.0043 16.18V21.508ZM71.5243 14.896C71.3243 14.896 71.1763 14.856 71.0803 14.776C70.9843 14.696 70.9363 14.572 70.9363 14.404V14.236C70.9363 14.068 70.9883 13.944 71.0923 13.864C71.1963 13.784 71.3443 13.744 71.5363 13.744C71.7283 13.744 71.8723 13.784 71.9683 13.864C72.0643 13.944 72.1123 14.068 72.1123 14.236V14.404C72.1123 14.572 72.0603 14.696 71.9563 14.776C71.8603 14.856 71.7163 14.896 71.5243 14.896ZM79.3808 18.88C79.3808 19.504 79.2408 20.06 78.9608 20.548C78.6888 21.036 78.3168 21.42 77.8448 21.7C77.3808 21.98 76.8568 22.12 76.2728 22.12C75.6888 22.12 75.1608 21.98 74.6888 21.7C74.2168 21.42 73.8408 21.036 73.5608 20.548C73.2888 20.06 73.1528 19.504 73.1528 18.88C73.1528 18.256 73.2888 17.7 73.5608 17.212C73.8408 16.724 74.2168 16.34 74.6888 16.06C75.1608 15.78 75.6888 15.64 76.2728 15.64C76.8568 15.64 77.3808 15.78 77.8448 16.06C78.3168 16.34 78.6888 16.724 78.9608 17.212C79.2408 17.7 79.3808 18.256 79.3808 18.88ZM78.4208 18.88C78.4208 18.416 78.3248 18.008 78.1328 17.656C77.9488 17.304 77.6928 17.028 77.3648 16.828C77.0448 16.628 76.6808 16.528 76.2728 16.528C75.8648 16.528 75.4968 16.628 75.1688 16.828C74.8488 17.028 74.5928 17.304 74.4008 17.656C74.2088 18.008 74.1128 18.416 74.1128 18.88C74.1128 19.336 74.2088 19.74 74.4008 20.092C74.5928 20.444 74.8488 20.724 75.1688 20.932C75.4968 21.132 75.8648 21.232 76.2728 21.232C76.6808 21.232 77.0448 21.132 77.3648 20.932C77.6928 20.724 77.9488 20.444 78.1328 20.092C78.3248 19.74 78.4208 19.336 78.4208 18.88Z" fill="white"/>
<path d="M26.375 26H28.375M28.375 26H38.375M28.375 26V12.2002C28.375 11.0801 28.375 10.5196 28.593 10.0918C28.7847 9.71547 29.0905 9.40973 29.4668 9.21799C29.8946 9 30.4551 9 31.5752 9H35.1752C36.2953 9 36.8546 9 37.2824 9.21799C37.6587 9.40973 37.9655 9.71547 38.1572 10.0918C38.375 10.5192 38.375 11.079 38.375 12.1969V18M38.375 26H44.375M38.375 26V18M44.375 26H46.375M44.375 26V18C44.375 17.0681 44.3749 16.6024 44.2227 16.2349C44.0197 15.7448 43.6307 15.3552 43.1406 15.1522C42.7731 15 42.3066 15 41.3747 15C40.4429 15 39.9769 15 39.6094 15.1522C39.1193 15.3552 38.7302 15.7448 38.5272 16.2349C38.375 16.6024 38.375 17.0681 38.375 18M31.375 16H35.375M31.375 13H35.375" stroke="white" stroke-width="2" stroke-linecap="round" stroke-linejoin="round"/>
</svg>
