<svg width="20" height="18" viewBox="0 0 20 18" fill="none" xmlns="http://www.w3.org/2000/svg">
<path d="M14 8V11M14 8H15.8031C16.921 8 17.48 8 17.9074 7.78223C18.2837 7.59048 18.5905 7.28372 18.7822 6.9074C19 6.47999 19 5.921 19 4.80309V4.19691C19 3.07899 19 2.5192 18.7822 2.0918C18.5905 1.71547 18.2837 1.40973 17.9074 1.21799C17.4796 1 16.9203 1 15.8002 1H12.2002C11.0801 1 10.5196 1 10.0918 1.21799C9.71547 1.40973 9.40973 1.71547 9.21799 2.0918C9 2.51962 9 3.08009 9 4.2002V4.80019C9 5.9203 9 6.47957 9.21799 6.9074C9.40973 7.28372 9.71547 7.59048 10.0918 7.78223C10.5192 8 11.079 8 12.1969 8H14ZM5 6L3 8L1 6M1 3L3 1L5 3M1 17.0002V15.2002C1 14.0801 1 13.5196 1.21799 13.0918C1.40973 12.7155 1.71547 12.4097 2.0918 12.218C2.51962 12 3.08009 12 4.2002 12H15.8002C16.9203 12 17.4796 12 17.9074 12.218C18.2837 12.4097 18.5905 12.7155 18.7822 13.0918C19 13.5192 19 14.079 19 15.1969V17.0002" stroke="white" stroke-width="2" stroke-linecap="round" stroke-linejoin="round"/>
</svg>
