<svg width="51" height="50" viewBox="0 0 51 50" fill="none" xmlns="http://www.w3.org/2000/svg">
<g id="Warning / Shield_Check">
<path id="Vector" d="M32.05 18.75L23.7166 27.0833L19.55 22.9167M42.4666 21.1772C42.4666 34.8611 32.1165 40.996 27.7287 42.9821L27.7231 42.9845C27.2617 43.1934 27.0303 43.2981 26.5059 43.3881C26.1738 43.4451 25.4282 43.4451 25.0961 43.3881C24.5696 43.2977 24.3359 43.1926 23.8707 42.9821C19.4829 40.996 9.1333 34.861 9.1333 21.1772V12.9171C9.1333 10.5835 9.1333 9.41588 9.58744 8.52458C9.98691 7.74057 10.6239 7.10361 11.4079 6.70414C12.2992 6.25 13.4668 6.25 15.8004 6.25H35.8004C38.1339 6.25 39.2991 6.25 40.1904 6.70414C40.9744 7.10361 41.6135 7.74057 42.0129 8.52458C42.4666 9.415 42.4666 10.5812 42.4666 12.9102V21.1772Z" stroke="#4B4A49" stroke-width="2" stroke-linecap="round" stroke-linejoin="round"/>
</g>
</svg>
