<svg width="50" height="50" viewBox="0 0 50 50" fill="none" xmlns="http://www.w3.org/2000/svg">
<g id="Interface / Ticket_Voucher">
<path id="Vector" d="M29.1667 12.5H12.5C10.5586 12.5 9.58733 12.5 8.82161 12.8172C7.80066 13.2401 6.99006 14.0517 6.56717 15.0726C6.25 15.8383 6.25 16.8091 6.25 18.7505C9.70178 18.7505 12.5 21.5477 12.5 24.9995C12.5 28.4513 9.70178 31.25 6.25 31.25C6.25 33.1914 6.25 34.1621 6.56717 34.9278C6.99006 35.9488 7.80066 36.7597 8.82161 37.1826C9.58733 37.4998 10.5586 37.5 12.5 37.5H29.1667M29.1667 12.5H37.5C39.4414 12.5 40.4121 12.5 41.1779 12.8172C42.1988 13.2401 43.0097 14.0517 43.4326 15.0726C43.7498 15.8383 43.7498 16.8091 43.7498 18.7505C40.298 18.7505 37.5 21.5482 37.5 25C37.5 28.4518 40.298 31.25 43.7498 31.25C43.7498 33.1914 43.7498 34.1621 43.4326 34.9278C43.0097 35.9488 42.1988 36.7597 41.1779 37.1826C40.4121 37.4998 39.4414 37.5 37.5 37.5H29.1667M29.1667 12.5V37.5" stroke="#4B4A49" stroke-width="2" stroke-linecap="round" stroke-linejoin="round"/>
</g>
</svg>
